<svg width="300" height="174" viewBox="0 0 300 174" fill="none" xmlns="http://www.w3.org/2000/svg">
<path d="M46.9339 160.559C46.9339 160.559 4.34551 142.599 0.236454 94.8789C-3.87261 47.1591 46.9339 44.5933 46.9339 44.5933C46.9339 44.5933 83.9154 44.1831 116.208 37.9251C148.501 31.6671 184.929 8.16529 184.929 8.16529C184.929 8.16529 245.517 -21.2819 274.769 31.667C304.02 84.616 273.388 143.927 240.144 155.199C212.761 164.486 142.875 188.528 46.9339 160.559Z" fill="#B3CBFF"/>
<path d="M199.366 137.2C204.728 137.2 209.075 134.789 209.075 131.814C209.075 128.84 204.728 126.429 199.366 126.429C194.004 126.429 189.657 128.84 189.657 131.814C189.657 134.789 194.004 137.2 199.366 137.2Z" fill="#0E1B7F"/>
<path d="M273.036 46.9773L278.122 73.8523C278.383 75.2263 280.174 75.591 280.955 74.4318L287.539 64.6509L298.869 61.3818C300.211 60.9911 300.413 59.1743 299.182 58.5036L275.159 45.434C274.085 44.8479 272.809 45.7791 273.036 46.9773Z" fill="#EDB82C"/>
<path d="M208.724 33.7451C212.979 33.7451 216.428 30.2961 216.428 26.0415C216.428 21.7868 212.979 18.3378 208.724 18.3378C204.469 18.3378 201.02 21.7868 201.02 26.0415C201.02 30.2961 204.469 33.7451 208.724 33.7451Z" fill="#3251B7"/>
<path d="M12.9734 139.394C19.3104 139.394 24.4475 134.257 24.4475 127.92C24.4475 121.583 19.3104 116.446 12.9734 116.446C6.63643 116.446 1.4993 121.583 1.4993 127.92C1.4993 134.257 6.63643 139.394 12.9734 139.394Z" fill="#0E1B7F"/>
<path d="M77.3839 18.2844C77.1039 17.1774 74.9875 16.6955 72.1483 16.9299C71.5948 16.9755 71.0738 16.6629 70.8524 16.155C69.7128 13.5437 68.2867 11.9027 67.1862 12.1827C66.0791 12.4627 65.5973 14.5791 65.8317 17.4183C65.8773 17.9718 65.5647 18.4928 65.0568 18.7142C62.4455 19.8538 60.8044 21.2799 61.0845 22.3804C61.3645 23.4875 63.4809 23.9694 66.3201 23.7349C66.8736 23.6894 67.3946 24.0019 67.616 24.5099C68.7556 27.1212 70.1817 28.7622 71.2822 28.4822C72.3827 28.2022 72.8711 26.0858 72.6367 23.2465C72.5911 22.693 72.9037 22.1721 73.4116 21.9507C76.0229 20.8176 77.6639 19.3914 77.3839 18.2844Z" fill="#EDB82C"/>
</svg>
